<svg width="96" height="96" viewBox="0 0 96 96" fill="none" xmlns="http://www.w3.org/2000/svg">
<g clip-path="url(#clip0_14_442)">
<path fill-rule="evenodd" clip-rule="evenodd" d="M35.8572 21.9545H62.3932C61.1938 15.7202 55.7095 11.0106 49.1252 11.0106C42.5409 11.0106 37.0566 15.7202 35.8572 21.9545Z" fill="#2268BA"/>
<path d="M33.2438 73.1831L36.8719 82.669C37.0448 83.1211 36.451 83.4667 36.1433 83.093C35.5216 82.3381 34.4075 82.2119 33.6246 82.798C33.2464 83.0811 32.6986 82.9451 32.5037 82.5146L32.3786 82.2385C31.9247 81.2361 30.8596 80.6579 29.7717 80.8232L29.6079 80.8481C29.0226 80.9371 28.5146 80.4414 28.5893 79.854L29.3779 73.6471C29.5499 72.2935 30.9932 71.5024 32.2268 72.0854C32.6946 72.3065 33.0589 72.6998 33.2438 73.1831Z" fill="#D76423"/>
<path d="M42.5702 73.322L46.1983 82.8079C46.3712 83.26 45.7774 83.6056 45.4697 83.232C44.848 82.4771 43.7339 82.3508 42.9511 82.9369C42.5728 83.2201 42.025 83.084 41.8301 82.6536L41.7051 82.3775C41.2511 81.3751 40.186 80.7968 39.0981 80.9622L38.9343 80.9871C38.349 81.076 37.841 80.5804 37.9157 79.993L38.7043 73.786C38.8763 72.4325 40.3196 71.6413 41.5532 72.2244C42.021 72.4455 42.3853 72.8387 42.5702 73.322Z" fill="#D76423"/>
<path d="M3.52074 47.1916L22.9273 32.5809L41.9679 62.5274C41.4948 61.7979 28.4429 65.8993 19.4728 63.1621C11.2107 60.6409 5.66068 50.2399 3.52074 47.1916Z" fill="#2268BA"/>
<path d="M65.4067 52.506C64.3061 66.1282 52.2009 76.2653 38.369 75.1477C24.5372 74.0301 14.2165 62.0811 15.3171 48.4588C16.4178 34.8365 28.523 24.6995 42.3549 25.8171C49.1923 26.3695 52.9491 31.8146 57.115 36.5543C61.3767 41.4028 65.9633 45.6175 65.4067 52.506Z" fill="#3375C4"/>
<path d="M42.0803 19.9619L42.0675 30.5949L92.2553 30.5949C88.2256 26.8289 78.0854 22.6574 68.0756 21.8942L42.0803 19.9619Z" fill="#FFB463"/>
<path d="M92.4117 35.8156L92.4873 33.7469L50.2034 30.1284L57.5444 68.3856C76.1492 68.9733 91.732 54.4172 92.4117 35.8156Z" fill="#FFB463"/>
<rect x="27.4426" y="10.5985" width="22.8963" height="35.7924" rx="11.4481" transform="rotate(0.09 27.4426 10.5985)" fill="#3375C4"/>
<circle cx="38.3909" cy="22.1005" r="6.5887" transform="rotate(0.038969 38.3909 22.1005)" fill="white"/>
<circle cx="39.8606" cy="22.198" r="3.99642" transform="rotate(0.038969 39.8606 22.198)" fill="black"/>
</g>
<defs>
<clipPath id="clip0_14_442">
<rect width="96" height="96" fill="white" transform="matrix(-1 0 0 1 96 0)"/>
</clipPath>
</defs>
</svg>
